<?xml version="1.0" standalone="no"?>
<!DOCTYPE svg PUBLIC "-//W3C//DTD SVG 20010904//EN"
 "http://www.w3.org/TR/2001/REC-SVG-20010904/DTD/svg10.dtd">
<svg version="1.0" xmlns="http://www.w3.org/2000/svg"
 width="894.000000pt" height="371.000000pt" viewBox="0 0 894.000000 371.000000"
 preserveAspectRatio="xMidYMid meet">

<g transform="translate(0.000000,371.000000) scale(0.100000,-0.100000)"
fill="#000000" stroke="none">
<path d="M3610 3679 c-63 -16 -192 -54 -285 -83 -94 -30 -199 -60 -235 -66
-115 -23 -148 -51 -186 -160 -14 -39 -24 -74 -21 -76 2 -2 30 5 63 17 32 11
182 56 332 100 413 120 532 165 655 246 37 24 67 46 67 49 0 2 -62 4 -137 4
-120 -1 -153 -5 -253 -31z"/>
<path d="M4000 3595 c-111 -83 -268 -145 -650 -256 -303 -88 -324 -95 -441
-140 l-81 -31 -48 -102 c-61 -130 -99 -245 -107 -321 l-6 -60 44 43 c107 104
333 231 635 357 87 36 197 82 244 102 209 86 409 199 499 280 l44 39 -38 62
c-21 34 -41 62 -44 61 -3 0 -26 -16 -51 -34z"/>
<path d="M4150 3398 c-118 -103 -313 -207 -655 -348 -249 -102 -460 -203 -556
-265 -96 -61 -200 -147 -233 -190 -25 -33 -26 -36 -12 -69 13 -32 13 -36 -4
-41 -27 -9 -31 -39 -19 -164 13 -137 20 -158 60 -175 l32 -13 50 76 c127 191
343 363 892 712 272 173 499 343 541 407 14 21 12 25 -17 62 -18 22 -35 40
-38 40 -3 -1 -22 -15 -41 -32z"/>
<path d="M4250 3206 c-93 -89 -187 -158 -412 -305 -97 -64 -250 -164 -340
-222 -192 -126 -291 -199 -411 -304 -85 -74 -217 -227 -217 -251 0 -16 104
-24 300 -24 l165 0 30 77 c56 142 180 304 335 440 41 36 163 131 270 213 107
81 224 173 259 204 70 61 161 164 160 181 0 5 -15 22 -32 36 l-32 27 -75 -72z"/>
<path d="M4411 3090 c-67 -77 -208 -198 -391 -335 -355 -266 -503 -427 -580
-631 l-10 -24 139 0 139 0 55 83 c67 100 221 272 351 392 178 165 318 336 378
463 l30 63 -23 25 c-12 13 -26 24 -29 24 -4 0 -31 -27 -59 -60z"/>
<path d="M4561 2973 c-66 -125 -131 -203 -391 -468 -203 -207 -350 -374 -350
-397 0 -3 60 -8 134 -11 73 -4 166 -14 205 -22 107 -22 105 -23 117 43 19 95
69 210 159 363 145 245 206 372 223 467 9 51 9 52 -24 77 l-33 25 -40 -77z"/>
<path d="M4726 2853 c-31 -95 -85 -203 -179 -358 -116 -191 -187 -357 -187
-433 0 -23 11 -28 91 -37 l56 -6 17 53 c51 155 149 252 426 418 183 109 224
137 268 180 l32 33 -92 37 c-105 42 -231 104 -330 161 -36 22 -68 39 -70 39
-2 0 -17 -39 -32 -87z"/>
<path d="M5280 2610 c-49 -49 -106 -91 -230 -165 -208 -124 -273 -170 -339
-239 -44 -48 -121 -180 -110 -190 2 -2 25 -6 50 -10 42 -6 46 -5 59 20 26 47
120 124 204 164 91 44 229 80 514 135 105 20 236 50 290 67 140 44 306 130
285 148 -12 11 -126 36 -368 80 -121 22 -236 44 -255 50 -19 5 -35 9 -35 8 0
-1 -29 -31 -65 -68z"/>
<path d="M6059 2458 c-139 -105 -325 -170 -664 -233 -342 -63 -462 -104 -552
-189 -18 -16 -33 -33 -33 -36 0 -11 229 -12 390 0 320 22 562 67 834 158 205
68 230 82 234 139 2 30 -2 46 -16 60 -11 10 -27 32 -36 50 -14 27 -54 65 -92
86 -6 3 -35 -12 -65 -35z"/>
<path d="M2315 1334 c-100 -37 -140 -132 -96 -230 22 -49 61 -81 154 -125 96
-45 117 -82 78 -130 -17 -21 -27 -24 -83 -23 -37 1 -84 10 -116 23 -29 12 -55
21 -57 21 -3 0 -5 -26 -5 -58 0 -56 1 -58 33 -71 47 -19 184 -25 236 -11 25 6
61 28 84 49 38 35 41 43 45 101 4 49 0 71 -13 97 -18 32 -99 94 -141 107 -12
4 -40 20 -63 36 -41 30 -53 66 -33 98 20 30 122 29 194 -2 13 -6 21 3 37 40
12 25 21 48 21 50 0 2 -30 12 -66 24 -76 23 -152 25 -209 4z"/>
<path d="M3522 1331 c-60 -21 -114 -68 -143 -123 -30 -58 -43 -168 -29 -245
27 -154 108 -230 260 -240 144 -10 241 41 293 156 18 38 22 65 22 156 0 131
-22 194 -88 251 -74 63 -208 82 -315 45z m199 -107 c43 -22 72 -95 73 -183 1
-98 -16 -149 -62 -183 -30 -24 -45 -28 -100 -28 -59 0 -66 2 -97 33 -80 80
-74 298 9 352 52 35 120 38 177 9z"/>
<path d="M4631 1338 c-48 -16 -97 -69 -105 -112 -10 -52 11 -115 48 -151 18
-16 70 -45 115 -64 112 -46 141 -71 141 -122 0 -76 -44 -109 -144 -109 -29 0
-78 7 -109 15 -32 8 -59 15 -60 15 -1 0 -2 -15 -1 -32 1 -30 5 -34 45 -46 66
-20 215 -12 259 14 55 32 80 77 80 143 0 89 -31 123 -159 173 -111 44 -141 72
-141 131 0 92 87 117 246 71 17 -4 24 0 32 24 10 29 9 31 -21 42 -46 17 -186
21 -226 8z"/>
<path d="M5830 1341 c-76 -23 -127 -69 -162 -146 -20 -43 -23 -66 -23 -160 0
-93 4 -118 23 -160 47 -102 114 -146 234 -153 135 -8 216 36 270 146 31 62 33
74 33 167 0 94 -3 106 -33 168 -37 75 -78 112 -148 133 -50 15 -152 17 -194 5z
m202 -78 c67 -39 98 -112 98 -234 0 -84 -19 -150 -53 -188 -51 -56 -164 -78
-239 -46 -44 18 -92 72 -109 122 -16 48 -16 174 0 231 15 55 64 109 116 128
51 18 144 12 187 -13z"/>
<path d="M2710 1035 l0 -305 65 0 65 0 0 130 0 130 125 0 125 0 0 -130 0 -130
60 0 59 0 3 243 c2 133 1 270 0 305 l-4 62 -59 0 c-40 0 -59 -4 -60 -12 0 -7
-1 -56 -1 -108 0 -52 -2 -100 -5 -107 -4 -10 -36 -13 -124 -13 l-119 0 0 120
0 120 -65 0 -65 0 0 -305z"/>
<path d="M4060 1035 l0 -305 180 0 180 0 0 50 0 50 -115 0 -115 0 0 80 0 80
105 0 105 0 0 55 0 55 -105 0 -106 0 3 68 3 67 113 3 112 3 0 49 0 50 -180 0
-180 0 0 -305z"/>
<path d="M5030 1036 l0 -304 35 -4 34 -4 3 146 3 145 163 3 162 2 0 -143 c0
-79 2 -146 5 -149 3 -2 18 -3 35 0 l30 4 0 304 0 304 -35 0 -35 0 0 -130 0
-130 -165 0 -165 0 0 130 0 130 -35 0 -35 0 0 -304z"/>
<path d="M6350 1036 l0 -306 35 0 35 0 0 120 0 120 68 0 c161 0 252 70 252
193 -1 66 -31 122 -82 149 -37 19 -61 23 -175 26 l-133 4 0 -306z m273 211
c44 -33 56 -80 36 -134 -23 -58 -56 -76 -154 -81 l-85 -5 0 128 0 127 83 -3
c73 -4 88 -8 120 -32z"/>
<path d="M3125 536 c17 -8 32 -12 34 -10 7 6 -2 11 -34 17 l-30 6 30 -13z"/>
<path d="M5063 535 c-18 -8 -33 -16 -33 -19 0 -6 51 14 65 26 13 11 5 10 -32
-7z"/>
<path d="M5525 540 c-3 -5 -1 -10 4 -10 6 0 11 5 11 10 0 6 -2 10 -4 10 -3 0
-8 -4 -11 -10z"/>
<path d="M3065 520 c-10 -11 -16 -22 -14 -24 2 -2 12 7 22 20 22 29 17 32 -8
4z"/>
<path d="M3267 526 c-10 -8 -14 -17 -9 -20 6 -3 12 1 16 9 12 32 95 13 109
-25 4 -12 6 -12 6 2 2 40 -83 63 -122 34z"/>
<path d="M3482 465 c2 -41 7 -75 12 -75 4 0 6 32 4 71 -3 50 -1 66 7 56 5 -9
16 -24 22 -34 7 -10 5 -1 -4 20 -28 63 -44 48 -41 -38z"/>
<path d="M3751 473 c1 -50 3 -60 8 -38 4 17 7 45 7 62 -1 18 3 35 9 37 5 3 2
5 -7 5 -16 1 -18 -8 -17 -66z"/>
<path d="M3815 530 c28 -12 37 -12 30 0 -3 6 -16 10 -28 9 -21 0 -21 -1 -2 -9z"/>
<path d="M3966 523 c-3 -10 -9 -25 -12 -33 -3 -8 2 -4 12 10 10 14 23 28 28
32 7 5 5 8 -5 8 -9 0 -19 -8 -23 -17z"/>
<path d="M4158 524 c12 -8 20 -19 17 -24 -3 -5 4 -14 16 -20 17 -10 20 -9 14
2 -14 24 -48 58 -59 58 -6 0 0 -7 12 -16z"/>
<path d="M4254 524 c3 -9 7 -30 7 -47 l2 -32 6 35 c8 39 4 60 -11 60 -6 0 -7
-7 -4 -16z"/>
<path d="M4366 525 c4 -8 11 -15 16 -15 6 0 5 6 -2 15 -7 8 -14 15 -16 15 -2
0 -1 -7 2 -15z"/>
<path d="M4454 523 c-4 -10 -6 -21 -6 -25 1 -5 -2 -8 -8 -8 -5 0 -10 -5 -10
-11 0 -8 5 -7 15 1 9 7 13 15 10 18 -3 3 2 14 12 24 9 10 11 18 6 18 -6 0 -14
-8 -19 -17z"/>
<path d="M4653 533 c9 -2 23 -2 30 0 6 3 -1 5 -18 5 -16 0 -22 -2 -12 -5z"/>
<path d="M4713 533 c9 -2 25 -2 35 0 9 3 1 5 -18 5 -19 0 -27 -2 -17 -5z"/>
<path d="M4860 532 c0 -4 9 -8 20 -8 11 0 20 4 20 8 0 4 -9 8 -20 8 -11 0 -20
-4 -20 -8z"/>
<path d="M5120 530 c20 -13 33 -13 25 0 -3 6 -14 10 -23 10 -15 0 -15 -2 -2
-10z"/>
<path d="M5415 465 c0 -41 3 -75 8 -75 4 0 7 34 7 75 0 41 -3 75 -7 75 -5 0
-8 -34 -8 -75z"/>
<path d="M5644 483 c1 -58 -16 -84 -27 -41 -4 12 -9 19 -12 16 -11 -11 14 -47
33 -45 14 1 17 12 19 64 0 35 -3 63 -7 63 -4 0 -7 -25 -6 -57z"/>
<path d="M5759 513 c5 -25 6 -26 9 -6 3 18 11 23 45 26 41 3 40 4 -9 5 -51 2
-51 2 -45 -25z"/>
<path d="M4001 510 c0 -14 28 -72 29 -59 0 4 -7 22 -15 40 -8 19 -14 27 -14
19z"/>
<path d="M4143 455 c0 -38 2 -53 4 -32 2 20 2 52 0 70 -2 17 -4 1 -4 -38z"/>
<path d="M4691 478 c0 -26 3 -49 7 -52 4 -2 6 12 4 32 -6 62 -10 69 -11 20z"/>
<path d="M5240 453 c0 -36 3 -63 7 -59 10 10 10 126 1 126 -5 0 -8 -30 -8 -67z"/>
<path d="M5531 504 c0 -11 3 -14 6 -6 3 7 2 16 -1 19 -3 4 -6 -2 -5 -13z"/>
<path d="M5561 499 c6 -14 17 -26 25 -26 12 0 12 3 2 11 -7 6 -18 18 -25 26
-11 13 -12 11 -2 -11z"/>
<path d="M3643 445 c0 -38 2 -53 4 -32 2 20 2 52 0 70 -2 17 -4 1 -4 -38z"/>
<path d="M3840 501 c0 -6 5 -13 10 -16 6 -3 10 1 10 9 0 9 -4 16 -10 16 -5 0
-10 -4 -10 -9z"/>
<path d="M4850 489 c-6 -11 -10 -25 -7 -32 2 -6 9 3 15 21 12 36 8 42 -8 11z"/>
<path d="M3240 486 c0 -9 5 -16 10 -16 6 0 10 4 10 9 0 6 -4 13 -10 16 -5 3
-10 -1 -10 -9z"/>
<path d="M3605 489 c-4 -6 -5 -12 -2 -15 2 -3 7 2 10 11 7 17 1 20 -8 4z"/>
<path d="M5020 490 c0 -5 5 -10 10 -10 6 0 10 5 10 10 0 6 -4 10 -10 10 -5 0
-10 -4 -10 -10z"/>
<path d="M4900 483 c0 -6 5 -15 10 -18 22 -13 8 -25 -29 -25 -22 0 -42 -4 -45
-8 -2 -4 16 -5 41 -2 52 6 60 16 38 45 -8 11 -15 15 -15 8z"/>
<path d="M3046 463 c-6 -14 -5 -15 5 -6 7 7 10 15 7 18 -3 3 -9 -2 -12 -12z"/>
<path d="M4401 464 c7 -9 12 -29 11 -45 -2 -16 0 -29 5 -29 11 0 10 49 -1 73
-5 9 -13 17 -18 17 -6 0 -4 -7 3 -16z"/>
<path d="M3805 460 c-28 -7 -28 -8 -5 -9 14 0 32 4 40 9 17 11 8 11 -35 0z"/>
<path d="M5783 463 c9 -2 25 -2 35 0 9 3 1 5 -18 5 -19 0 -27 -2 -17 -5z"/>
<path d="M3380 452 c0 -22 -40 -52 -69 -52 -20 0 -36 8 -50 28 -11 15 -21 22
-21 15 0 -6 13 -22 30 -36 27 -23 33 -24 66 -14 33 10 64 50 49 65 -3 3 -5 0
-5 -6z"/>
<path d="M3549 439 c4 -13 13 -24 20 -25 6 -1 7 0 1 3 -5 2 -10 11 -10 18 0 8
-4 17 -10 20 -6 4 -7 -2 -1 -16z"/>
<path d="M3585 449 c-4 -6 -5 -12 -2 -15 2 -3 7 2 10 11 7 17 1 20 -8 4z"/>
<path d="M4210 451 c0 -5 6 -14 14 -20 12 -10 13 -8 9 8 -5 21 -23 30 -23 12z"/>
<path d="M5021 444 c0 -11 3 -14 6 -6 3 7 2 16 -1 19 -3 4 -6 -2 -5 -13z"/>
<path d="M5110 456 c0 -2 9 -6 20 -9 11 -3 20 -1 20 4 0 5 -9 9 -20 9 -11 0
-20 -2 -20 -4z"/>
<path d="M5533 425 c0 -22 2 -30 4 -17 2 12 2 30 0 40 -3 9 -5 -1 -4 -23z"/>
<path d="M3060 420 c6 -11 15 -20 20 -20 6 0 2 9 -7 20 -10 11 -19 20 -21 20
-1 0 2 -9 8 -20z"/>
<path d="M3933 423 c0 -8 4 -9 11 -4 6 5 27 11 46 14 28 4 26 4 -11 4 -31 0
-46 -5 -46 -14z"/>
<path d="M5761 424 c0 -11 3 -14 6 -6 3 7 2 16 -1 19 -3 4 -6 -2 -5 -13z"/>
<path d="M4253 416 c-9 -11 -9 -15 0 -19 7 -3 14 3 14 14 2 22 2 22 -14 5z"/>
<path d="M5137 415 c-7 -17 -72 -21 -82 -5 -3 6 -11 10 -18 10 -6 0 -2 -7 9
-15 26 -20 93 -20 101 0 3 9 3 18 0 21 -2 3 -7 -2 -10 -11z"/>
<path d="M4040 400 c6 -11 12 -20 14 -20 2 0 2 9 -1 20 -3 11 -9 20 -15 20 -5
0 -4 -9 2 -20z"/>
<path d="M4930 405 c0 -8 4 -15 10 -15 5 0 7 7 4 15 -4 8 -8 15 -10 15 -2 0
-4 -7 -4 -15z"/>
<path d="M3120 400 c-20 -6 -21 -8 -5 -8 11 0 29 3 40 8 25 11 -1 11 -35 0z"/>
<path d="M4690 399 c0 -5 5 -7 10 -4 6 3 10 8 10 11 0 2 -4 4 -10 4 -5 0 -10
-5 -10 -11z"/>
<path d="M5308 393 c7 -3 16 -2 19 1 4 3 -2 6 -13 5 -11 0 -14 -3 -6 -6z"/>
<path d="M5803 393 c9 -2 25 -2 35 0 9 3 1 5 -18 5 -19 0 -27 -2 -17 -5z"/>
</g>
</svg>
